<svg width="74" height="23" fill="none" xmlns="http://www.w3.org/2000/svg"><path d="M.005 1.5486C.0049 1.2126.1358.8898.3697.6494a1.2794 1.2794 0 01.887-.3871H8.39c5.0569 0 8.3851 2.7022 8.3851 7.1295v.0598c0 4.8461-4.0336 7.3589-8.8024 7.3589H2.5384v6.8005a1.2783 1.2783 0 01-.3286.9744 1.269 1.269 0 01-1.4506.3064 1.2729 1.2729 0 01-.4256-.3064 1.2783 1.2783 0 01-.3286-.9744V1.5486zM8.072 12.517c3.7058 0 6.1399-1.9943 6.1399-4.9857v-.0598c0-3.2108-2.3944-4.876-5.961-4.876H2.588v9.8816l5.484.0399zM21.5935 1.389a1.2784 1.2784 0 01.3286-.9744 1.2715 1.2715 0 01.4256-.3064 1.2676 1.2676 0 011.4505.3064 1.28 1.28 0 01.3287.9744v20.222a1.28 1.28 0 01-.3287.9744 1.2692 1.2692 0 01-1.4505.3064 1.2712 1.2712 0 01-.4256-.3064 1.2784 1.2784 0 01-.3286-.9744V1.389zM30.674 1.419a1.2782 1.2782 0 01.3757-.8764 1.2692 1.2692 0 01.8761-.37h.3477c.2581.0052.5108.0756.7347.2045.224.129.412.3123.5469.5333l13.6008 17.4V1.3591c0-.3279.1298-.6424.3609-.8743a1.2295 1.2295 0 01.8711-.3621c.3267 0 .64.1302.8711.3621.231.2319.3608.5464.3608.8743v20.2917a1.14 1.14 0 01-.3242.837 1.1292 1.1292 0 01-.8283.3397h-.1291a1.695 1.695 0 01-.7474-.2331 1.7026 1.7026 0 01-.564-.5447L33.1179 4.2409v17.4099a1.2584 1.2584 0 01-.3487.8616 1.25 1.25 0 01-.8434.3849 1.2298 1.2298 0 01-.8618-.3727 1.2385 1.2385 0 01-.3503-.8738V1.4189h-.0397zM55.9384 1.389a1.2784 1.2784 0 01.3286-.9744 1.2725 1.2725 0 01.4256-.3064 1.2676 1.2676 0 011.4505.3064 1.28 1.28 0 01.3287.9744v12.2947L71.2282.5514a1.468 1.468 0 01.9934-.4487c.3252.0128.6332.1501.8605.3838.2273.2337.3567.546.3615.8726a1.29 1.29 0 01-.1191.4907 1.2854 1.2854 0 01-.2981.4067l-7.9479 7.8974 8.5738 10.5297c.2241.2605.3475.5932.3477.9373a1.3122 1.3122 0 01-.1113.5001 1.3055 1.3055 0 01-.7265.6913 1.2975 1.2975 0 01-.5034.085 1.2285 1.2285 0 01-.568-.1659 1.2334 1.2334 0 01-.4255-.4125L63.3001 11.859l-4.8283 4.8461v4.8859a1.2704 1.2704 0 01-.3696.8955 1.2588 1.2588 0 01-1.375.2745 1.2612 1.2612 0 01-.4093-.2745 1.2675 1.2675 0 01-.3696-.8955V1.389h-.0099z" fill="#ffffff"/></svg>
